<svg xmlns="http://www.w3.org/2000/svg" xmlns:xlink="http://www.w3.org/1999/xlink" viewBox="0,0,256,256" width="19px" height="19px"><g fill="#ffffff" fill-rule="nonzero" stroke="none" stroke-width="1" stroke-linecap="butt" stroke-linejoin="miter" stroke-miterlimit="10" stroke-dasharray="" stroke-dashoffset="0" font-family="none" font-weight="none" font-size="none" text-anchor="none" style="mix-blend-mode: normal"><g transform="scale(5.33333,5.33333)"><path d="M31.8457,7.0332c-0.27373,-0.00608 -0.54615,0.01315 -0.8125,0.05664c-1.59811,0.26091 -3.00269,1.37975 -3.54492,3.00195c-0.1179,0.35252 -0.22428,0.70517 -0.3125,1.0625c-1.349,-0.12359 -2.47677,-0.14648 -3.17578,-0.14649c-0.69901,0 -1.82678,0.0229 -3.17578,0.14649c-0.08815,-0.35669 -0.19481,-0.70863 -0.3125,-1.06055c-0.54223,-1.62221 -1.94681,-2.74104 -3.54492,-3.00195c-0.5327,-0.08697 -1.08777,-0.07739 -1.63867,0.03906c-2.21004,0.46739 -5.3664,1.37425 -7.85547,3.39453c-0.41625,0.33772 -0.6207,0.87186 -0.53634,1.4012c0.08436,0.52934 0.44472,0.97346 0.94533,1.16506c0.50061,0.1916 1.06541,0.10157 1.48163,-0.23618c1.83293,-1.48772 4.61597,-2.37245 6.58594,-2.78906c0.74838,-0.15819 1.46977,0.23946 1.7168,0.97852c0.06422,0.19203 0.11075,0.36978 0.16016,0.54883c-2.23543,0.44356 -4.72926,1.21389 -7.0918,2.61719c-0.48046,0.26375 -0.77883,0.76852 -0.77826,1.31661c0.00057,0.54809 0.30001,1.05224 0.78102,1.31498c0.48101,0.26274 1.06702,0.24224 1.52849,-0.05346c4.35719,-2.58808 9.74195,-2.78125 11.73438,-2.78125c1.99243,0 7.37718,0.19317 11.73438,2.78125c0.46148,0.2957 1.04748,0.3162 1.52849,0.05346c0.48101,-0.26274 0.78044,-0.76689 0.78102,-1.31498c0.00057,-0.54809 -0.2978,-1.05286 -0.77826,-1.31661c-2.36319,-1.40369 -4.85786,-2.17369 -7.09375,-2.61719c0.04951,-0.17954 0.09572,-0.35812 0.16016,-0.55078c0.24703,-0.73906 0.96842,-1.13671 1.7168,-0.97852c1.95242,0.41271 4.692,1.29299 6.52539,2.75586c0.17504,0.17486 1.30289,1.92686 2.22852,4.28906c0.93315,2.38141 1.86579,5.47219 2.46289,8.77344c0.09514,0.52763 0.46458,0.96439 0.96912,1.14574c0.50454,0.18134 1.06749,0.0797 1.47676,-0.26664c0.40926,-0.34633 0.60263,-0.88472 0.50725,-1.4123c-0.6359,-3.51575 -1.61695,-6.76835 -2.62305,-9.33594c-1.0061,-2.56759 -1.82076,-4.32872 -2.99219,-5.42187c-0.02525,-0.02368 -0.0513,-0.04648 -0.07812,-0.06836c-2.48889,-2.02014 -5.64425,-2.92712 -7.85547,-3.39453c-0.27545,-0.05823 -0.55049,-0.08962 -0.82422,-0.0957zM5.74219,15.05078c-0.60202,0.02532 -1.13046,0.40839 -1.3418,0.97266c-1.6902,4.31628 -3.32617,10.56447 -3.32617,16.74609c0.00007,0.25799 0.06666,0.51159 0.19336,0.73633c2.34554,4.16203 7.43776,5.7402 10.55664,6.36914c1.72044,0.34679 3.49272,-0.35964 4.51953,-1.7832l1.23633,-1.71484c1.84795,0.3869 3.98713,0.64258 6.41992,0.64258c2.43279,0 4.57197,-0.25568 6.41992,-0.64258l1.23438,1.71289c1.02642,1.42509 2.80088,2.13003 4.52148,1.7832c3.11888,-0.62894 8.20915,-2.20711 10.55469,-6.36914c0.27084,-0.46444 0.27243,-1.0383 0.00417,-1.50423c-0.26826,-0.46593 -0.76536,-0.75268 -1.30299,-0.75163c-0.54837,0.0012 -1.05238,0.30151 -1.31445,0.7832c-1.52046,2.69797 -5.85203,4.35933 -8.53516,4.90039c-0.57139,0.11518 -1.13861,-0.10479 -1.49219,-0.5957l-0.58008,-0.80273c0.60038,-0.20375 1.16508,-0.4153 1.66797,-0.62891c2.51411,-1.06791 3.9043,-2.23242 3.9043,-2.23242c0.40793,-0.34782 0.59929,-0.88687 0.50199,-1.41405c-0.0973,-0.52718 -0.46848,-0.9624 -0.9737,-1.14168c-0.50522,-0.17928 -1.06771,-0.07539 -1.47555,0.27253c0,0 -0.94752,0.82927 -3.12891,1.75586c-2.18139,0.92659 -5.50028,1.875 -10.00586,1.875c-4.50558,0 -7.82447,-0.94841 -10.00586,-1.875c-2.18139,-0.92659 -3.12891,-1.75586 -3.12891,-1.75586c-0.26568,-0.23352 -0.60534,-0.36565 -0.95898,-0.37305c-0.6386,-0.01394 -1.21599,0.37802 -1.43873,0.97668c-0.22274,0.59866 -0.04196,1.27271 0.45045,1.67957c0,0 1.39019,1.16451 3.9043,2.23242c0.50289,0.21361 1.06759,0.42516 1.66797,0.62891l-0.58008,0.80469c-0.35519,0.49243 -0.92258,0.71287 -1.49414,0.59766c-2.57987,-0.52024 -6.62546,-2.10366 -8.28906,-4.62109c0.08033,-5.50768 1.54282,-11.30147 3.06836,-15.19727c0.19345,-0.47322 0.13258,-1.01238 -0.16149,-1.43057c-0.29407,-0.41819 -0.78087,-0.65783 -1.29163,-0.63584zM17.53516,22c-1.90765,0.00968 -3.44962,1.77977 -3.44962,3.95996c0,2.18019 1.54198,3.95029 3.44962,3.95996c1.90765,-0.00968 3.44962,-1.77977 3.44962,-3.95996c0,-2.18019 -1.54198,-3.95029 -3.44962,-3.95996zM30.44531,22c-1.933,0 -3.5,1.79086 -3.5,4c0,2.20914 1.567,4 3.5,4c1.933,0 3.5,-1.79086 3.5,-4c0,-2.20914 -1.567,-4 -3.5,-4z"></path></g></g></svg>